<?xml version="1.0" encoding="utf-8"?>
<!-- Generator: Adobe Illustrator 25.0.1, SVG Export Plug-In . SVG Version: 6.00 Build 0)  -->
<svg version="1.0" id="Layer_1" xmlns="http://www.w3.org/2000/svg" xmlns:xlink="http://www.w3.org/1999/xlink" x="0px" y="0px"
	 viewBox="0 0 312 211" style="enable-background:new 0 0 312 211;" xml:space="preserve">
<style type="text/css">
	.st0{fill:#EC2027;}
	.st1{fill:none;}
</style>
<path d="M241.3,95.2c0.6,0,1,0.1,1,0.6c0,0.4-0.2,0.5-0.7,0.5h-1.3v-1.1H241.3z M240.3,97.2h0.7l1,1.8h1.2l-1.1-1.9
	c0.8-0.1,1.2-0.4,1.2-1.3c0-1-0.6-1.4-1.6-1.4h-2.6v4.6h1.1L240.3,97.2z M241.1,93.5c1.7-0.1,3.1,1.2,3.2,2.8c0,0.1,0,0.2,0,0.3
	c0.1,1.7-1.2,3.2-2.9,3.3c-0.1,0-0.2,0-0.3,0c-1.8,0-3.2-1.4-3.2-3.2C237.9,94.9,239.4,93.5,241.1,93.5L241.1,93.5z M241.1,92.5
	c-2.4,0-4.3,1.9-4.3,4.3c0,2.4,1.9,4.3,4.3,4.3c2.3,0.1,4.2-1.8,4.3-4.1c0-0.1,0-0.1,0-0.2c0.1-2.3-1.7-4.2-3.9-4.3
	C241.4,92.5,241.3,92.5,241.1,92.5"/>
<polygon points="104.7,102.3 109.6,102.3 109.7,125.7 104.7,125.8 "/>
<polygon points="104.7,92.8 109.6,92.7 109.6,100.2 104.7,100.2 "/>
<polygon points="219.1,92.6 224.1,92.6 224.2,125.6 219.2,125.6 "/>
<rect x="227.6" y="92.6" transform="matrix(1 -1.745326e-03 1.745326e-03 1 -0.19 0.4018)" width="5" height="33"/>
<path d="M91.5,111.6c1.6,0.1,3-1,3.1-2.6c0.1-1.6-1-3-2.6-3.1c-0.2,0-0.3,0-0.5,0h-20v5.8L91.5,111.6z M92.3,122.2
	c1.9,0.1,3.6-1.4,3.7-3.3c0,0,0-0.1,0-0.1c0-2-1.7-3.6-3.7-3.6H71.5v7.1L92.3,122.2z M66.5,102.3h27.6c3-0.2,5.7,2.1,5.9,5.2
	c0,0.2,0,0.4,0,0.6c-0.1,2.2-1,4.2-2.2,4.8c2.3,1.2,3.7,3.6,3.7,6.1c-0.2,6.2-6.2,6.7-8.8,6.7H66.6L66.5,102.3z"/>
<path d="M192.4,102.2c-1.8,0-6.1,1-6.2,5c-0.1,3.5,1.8,5.1,3,5.5c-1.5,0.7-2.9,3.4-2.9,5.8s0.9,7.2,8.7,7.2h21.2v-3.5h-20.6
	c-1.9,0.1-3.5-1.3-3.7-3.2c0-0.1,0-0.1,0-0.2c0-2,1.6-3.6,3.6-3.6c0,0,0,0,0,0H215v-3.5h-20c-1.6,0.1-3-1.1-3.2-2.7
	c-0.1-1.6,1.1-3,2.7-3.2c0.2,0,0.3,0,0.5,0h21.1v-3.5L192.4,102.2z"/>
<path d="M177.3,109.5h5c0-5.8-2.6-7.4-9.8-7.3h-13.7c-3.1,0-8.5,1.4-8.5,6.2s1.8,6.7,7.4,6.7h16.4c1.9-0.2,3.6,1.3,3.8,3.2
	c0,0,0,0.1,0,0.1c0,2.2-1.1,3.8-4.6,3.7h-12.9c-1.7,0-5.2-0.2-5.2-3.8h-5c0,2.9,0.6,7.4,8.2,7.3h16.3c3.2,0,8.4-1.5,8.4-7.4
	s-4.9-6.7-7.7-6.7h-16.4c-2.7,0-3.6-1.7-3.6-2.9s0.9-2.9,3.6-2.9h14.3C175.7,105.7,177.3,106.6,177.3,109.5z"/>
<path d="M141.8,109.5h5c0-5.8-2.6-7.4-9.8-7.3h-13.7c-3.1,0-8.5,1.4-8.5,6.2c0,4.8,1.8,6.7,7.4,6.7h16.4c1.9-0.2,3.6,1.3,3.8,3.2
	c0,0,0,0.1,0,0.1c0,2.2-1.1,3.8-4.6,3.7H125c-1.7,0-5.2-0.2-5.2-3.8h-5c0,2.9,0.6,7.4,8.2,7.3h16.3c3.2,0,8.4-1.5,8.4-7.4
	s-4.9-6.7-7.7-6.7h-16.4c-2.7,0-3.6-1.7-3.6-2.9s0.9-2.9,3.6-2.9h14.3C140.2,105.7,141.8,106.6,141.8,109.5z"/>
<path class="st0" d="M217.8,167.7c7.8,0,4.6-7.3,3.2-9.8c-2.1-3.6-12.8-22.8-12.8-22.8l-115.5,0.2c0,0-10.7,19.2-12.7,22.8
	c-1.4,2.5-4.5,9.6,3.2,9.6L217.8,167.7z"/>
<path class="st0" d="M114.5,92.9h70c0,0-17.5-32.2-21.7-39.7c-3.8-6.8-6.1-10-13.5-10s-9.4,3.3-13.4,10.2S114.5,92.9,114.5,92.9z"/>
<rect x="59" y="37" class="st1" width="194" height="137"/>
</svg>
